<?xml version="1.0" encoding="UTF-8"?>
<svg version="1.1" xmlns="http://www.w3.org/2000/svg" width="500" height="500">
<path d="M0 0 C1.57436829 -0.01030243 1.57436829 -0.01030243 3.18054199 -0.02081299 C4.04959167 -0.02817474 4.91864136 -0.0355365 5.81402588 -0.04312134 C11.80757029 0.14350095 17.36420105 0.77475615 22.4588623 4.03533936 C24.3338623 6.03533936 24.3338623 6.03533936 25.3338623 8.03533936 C28.58426011 8.5126705 31.8058728 8.82328122 35.07995605 9.07049561 C41.25808589 9.6779926 45.72984975 11.48393311 50.26745605 15.92987061 C50.76374512 16.56280029 51.26003418 17.19572998 51.7713623 17.84783936 C54.70517127 21.39203811 57.84909082 24.32971741 61.3416748 27.31268311 C63.34882046 29.04827376 65.29524576 30.82215583 67.2088623 32.66033936 C67.76315918 33.18885498 68.31745605 33.71737061 68.8885498 34.26190186 C73.68425803 40.14636546 73.57223532 48.47976615 73.1932373 55.72283936 C72.18884523 62.70991462 69.06774691 66.95415221 64.3338623 72.03533936 C63.78939453 72.62073486 63.24492676 73.20613037 62.68395996 73.80926514 C60.79465582 75.82052489 58.88212404 77.80654598 56.9588623 79.78533936 C56.34696045 80.42366699 55.73505859 81.06199463 55.10461426 81.71966553 C51.75284131 85.08201606 48.76622926 87.4343876 44.47058105 89.49237061 C41.36475421 91.07297533 41.36475421 91.07297533 39.4041748 93.82293701 C38.92093358 95.89143281 38.67280034 97.8546736 38.5213623 99.97283936 C37.55386642 109.65684019 33.08400107 114.58070747 26.3338623 121.09783936 C22.39513297 124.92532843 18.74408469 128.71830784 15.3338623 133.03533936 C9.679661 136.99328027 4.84103502 137.1754394 -1.9161377 137.09783936 C-2.66121582 137.09332764 -3.40629395 137.08881592 -4.1739502 137.08416748 C-6.0047141 137.07243181 -7.83543642 137.05449786 -9.6661377 137.03533936 C-9.5939502 138.11170654 -9.5217627 139.18807373 -9.4473877 140.29705811 C-6.64587038 183.61589352 -6.64587038 183.61589352 -14.47451782 193.26400757 C-22.9562597 202.50273676 -31.71743602 211.45714702 -40.53967285 220.36883545 C-42.5466017 222.39813973 -44.54327198 224.43679273 -46.53186035 226.48406982 C-48.96451183 228.98827657 -51.41436535 231.47441846 -53.87692642 233.94920731 C-55.24380095 235.33131221 -56.59331321 236.7305208 -57.94223022 238.13015747 C-69.58059222 249.73160945 -82.09195337 250.13255774 -97.77586365 250.17411804 C-99.62420555 250.17116478 -99.62420555 250.17116478 -101.5098877 250.16815186 C-102.82175552 250.16960709 -104.13362335 250.17106232 -105.48524475 250.17256165 C-108.99159186 250.17554062 -112.49789002 250.17139613 -116.0042305 250.16451645 C-118.17309783 250.16032591 -120.34196414 250.15737493 -122.51083374 250.15463257 C-155.74736819 250.10695562 -155.74736819 250.10695562 -170.57189941 249.77087402 C-171.992542 249.73923361 -173.41329018 249.71198288 -174.83410645 249.68945312 C-188.0893891 249.4631102 -188.0893891 249.4631102 -193.6661377 246.03533936 C-194.31066895 245.17682373 -194.9552002 244.31830811 -195.6192627 243.43377686 C-198.79843603 239.7085623 -202.8590703 239.89368391 -207.4708252 239.47283936 C-213.87865777 238.62008597 -217.16983306 235.48654134 -221.6661377 231.03533936 C-222.38333984 230.36873291 -223.10054199 229.70212646 -223.83947754 229.01531982 C-226.08405885 226.92764703 -228.28322244 224.79956128 -230.4786377 222.66033936 C-231.60302246 221.60459717 -231.60302246 221.60459717 -232.75012207 220.52752686 C-238.5729874 214.82434509 -241.06763182 209.87619574 -242.0645752 201.81268311 C-241.95779555 188.87455002 -237.8413154 183.15590291 -228.6661377 174.03533936 C-226.07107193 171.60709924 -223.39272319 169.31317432 -220.6661377 167.03533936 C-219.7380127 166.18262451 -219.7380127 166.18262451 -218.7911377 165.31268311 C-218.1930127 164.76740967 -217.5948877 164.22213623 -216.9786377 163.66033936 C-216.19939941 162.93717529 -216.19939941 162.93717529 -215.40441895 162.19940186 C-213.21921387 160.73605104 -211.24581288 160.41328155 -208.6661377 160.03533936 C-208.62875488 159.10592529 -208.59137207 158.17651123 -208.55285645 157.21893311 C-207.91900433 145.30002762 -205.80235558 139.71718277 -197.15441895 131.45721436 C-195.11568485 129.47288918 -193.31774099 127.49752858 -191.5411377 125.28533936 C-187.28278851 120.18255832 -182.02594732 116.07762779 -175.6661377 114.03533936 C-172.85619825 113.89773213 -170.15611846 113.84522363 -167.3536377 113.91033936 C-166.61307129 113.91936279 -165.87250488 113.92838623 -165.10949707 113.93768311 C-163.29490302 113.96109722 -161.48047698 113.9969632 -159.6661377 114.03533936 C-159.67661133 112.94704834 -159.68708496 111.85875732 -159.69787598 110.73748779 C-159.7344662 106.6447487 -159.75717805 102.55202362 -159.77600098 98.45916748 C-159.78597064 96.69807492 -159.79955126 94.93699853 -159.8170166 93.17596436 C-159.98883426 75.38778273 -159.64500808 63.20082352 -146.79748535 49.77850342 C-144.89936122 47.86075584 -142.99472699 45.95208259 -141.0802002 44.05096436 C-140.05375227 43.02248976 -139.02774954 41.99357069 -138.00216675 40.9642334 C-135.86373884 38.82141202 -133.72005598 36.68403487 -131.5723877 34.55047607 C-128.83665092 31.83185102 -126.11463761 29.09994489 -123.39643288 26.36380386 C-121.28447893 24.24094969 -119.16535792 22.12536551 -117.04407883 20.01183319 C-116.03808565 19.00782368 -115.03426721 18.00162972 -114.03279495 16.99311066 C-103.54280017 6.44550753 -95.27142114 0.76022112 -80.14562988 0.7164917 C-78.92921059 0.70142326 -78.92921059 0.70142326 -77.68821716 0.68605042 C-75.02982207 0.65537886 -72.37152775 0.63821255 -69.7130127 0.62127686 C-67.84746476 0.60253195 -65.981925 0.58295616 -64.11639404 0.56259155 C-59.21548408 0.51138837 -54.31454609 0.47173556 -49.41351318 0.43444824 C-44.4572851 0.39458365 -39.50117725 0.34324275 -34.54504395 0.29315186 C-24.94539115 0.19865215 -15.34574274 0.10938592 -5.74580383 0.04955292 C-3.8305094 0.03646276 -1.91525019 0.01846186 0 0 Z M-64.6661377 73.03533936 C-64.6661377 73.69533936 -64.6661377 74.35533936 -64.6661377 75.03533936 C-60.1455038 75.10940452 -55.62522169 75.16389981 -51.10412598 75.20013428 C-49.56565196 75.21523646 -48.02722109 75.23571982 -46.4888916 75.26165771 C-44.27963628 75.29798009 -42.07094922 75.31505055 -39.8614502 75.32830811 C-39.17181183 75.34379196 -38.48217346 75.35927582 -37.77163696 75.37522888 C-35.62185183 75.41071819 -35.62185183 75.41071819 -32.6661377 75.03533936 C-32.0061377 74.04533936 -31.3461377 73.05533936 -30.6661377 72.03533936 C-32.99193204 69.70954501 -38.77270487 70.86373912 -41.86730957 70.84979248 C-42.87942505 70.84991333 -42.87942505 70.84991333 -43.9119873 70.85003662 C-45.95980899 70.84785937 -48.00708397 70.82973382 -50.05480957 70.81072998 C-51.34580566 70.80879639 -52.63680176 70.80686279 -53.96691895 70.80487061 C-55.15454834 70.80076172 -56.34217773 70.79665283 -57.5657959 70.79241943 C-60.52257004 71.02409045 -62.17957164 71.48550654 -64.6661377 73.03533936 Z M-137.6661377 176.03533936 C-137.6661377 176.69533936 -137.6661377 177.35533936 -137.6661377 178.03533936 C-133.2878865 178.06003017 -128.90967202 178.07819493 -124.53137207 178.090271 C-123.04145604 178.0953045 -121.55154495 178.10213178 -120.06164551 178.11077881 C-117.92198465 178.12288741 -115.78238902 178.12857742 -113.6427002 178.13299561 C-111.71031494 178.14085083 -111.71031494 178.14085083 -109.7388916 178.14886475 C-106.75208542 178.25076566 -106.75208542 178.25076566 -104.6661377 177.03533936 C-104.6661377 176.04533936 -104.6661377 175.05533936 -104.6661377 174.03533936 C-108.88365051 173.98587822 -113.10100938 173.94959109 -117.31872559 173.92547607 C-118.75332582 173.91542236 -120.18790558 173.90177742 -121.62243652 173.88446045 C-123.68523207 173.86018387 -125.74775654 173.84885017 -127.81066895 173.84002686 C-129.67235718 173.82431641 -129.67235718 173.82431641 -131.57165527 173.80828857 C-134.83517078 173.79245866 -134.83517078 173.79245866 -137.6661377 176.03533936 Z " fill="#000101" transform="translate(327.6661376953125,130.96466064453125)"/>
<path d="M0 0 C2.875 -0.5 2.875 -0.5 6 0 C10 4 10 4 10 7 C10.66 7 11.32 7 12 7 C12.804375 8.0209375 12.804375 8.0209375 13.625 9.0625 C16.15912532 12.19681289 18.91259872 14.61206969 21.9609375 17.2265625 C24.8012382 19.69686234 27.43513592 22.24277111 30 25 C30 25.66 30 26.32 30 27 C30.66 27 31.32 27 32 27 C32 28.65 32 30.3 32 32 C31.34 32 30.68 32 30 32 C29.68482422 32.82177734 29.68482422 32.82177734 29.36328125 33.66015625 C27.50890669 36.84287936 24.92338549 39.032435 22.1875 41.4375 C21.13831021 42.37256284 20.09012375 43.30875276 19.04296875 44.24609375 C18.53113037 44.70411377 18.01929199 45.16213379 17.49194336 45.6340332 C14.61453484 48.2684794 11.90191356 51.0669188 9.19140625 53.87109375 C7.5296605 55.46907948 5.98413199 56.82095926 4 58 C-1.13997202 57.4860028 -3.63352362 54.711756 -7 51 C-7.78375 50.236875 -8.5675 49.47375 -9.375 48.6875 C-19 38.83333333 -19 38.83333333 -19 36 C-46.06 36 -73.12 36 -101 36 C-101.66 37.32 -102.32 38.64 -103 40 C-104.62141947 41.71071752 -106.29348149 43.37416172 -108 45 C-108.81823242 45.81299561 -109.63646484 46.62599121 -110.47949219 47.46362305 C-111.32672852 48.30449463 -112.17396484 49.14536621 -113.046875 50.01171875 C-114.46287807 51.4208289 -115.87887385 52.82994645 -117.29443359 54.23950195 C-118.2710965 55.21108661 -119.24864755 56.18177923 -120.22705078 57.15161133 C-121.64849113 58.56096541 -123.06648823 59.97378963 -124.484375 61.38671875 C-125.32709961 62.22420654 -126.16982422 63.06169434 -127.03808594 63.92456055 C-129.04314068 65.8450834 -129.04314068 65.8450834 -130 68 C-120.32493994 68.11597197 -110.65012 68.20475455 -100.97451591 68.25906086 C-96.48145836 68.28512848 -91.98887716 68.32047407 -87.49609375 68.37719727 C-83.1583197 68.43161919 -78.82100313 68.46144186 -74.48291397 68.47438622 C-72.82989426 68.48360793 -71.17689892 68.5016163 -69.52407455 68.52865028 C-67.2041435 68.56507833 -64.8860901 68.56993996 -62.56591797 68.56762695 C-61.24687469 68.57873001 -59.92783142 68.58983307 -58.56881714 68.60127258 C-52.80547937 67.63026823 -49.5728754 64.00862848 -46 59.5 C-44.09727272 57.19879581 -42.20774966 55.23885525 -39.875 53.375 C-37.13956259 51.11529084 -35.10856138 48.83844801 -33 46 C-28.17965738 46.41317222 -26.09007389 48.38019915 -23 52 C-23 52.66 -23 53.32 -23 54 C-22.42121094 54.24105469 -21.84242188 54.48210937 -21.24609375 54.73046875 C-18.57340332 56.24111986 -17.04605446 57.97544079 -15.0625 60.3125 C-12.78651384 62.95859979 -10.52868452 65.53128738 -8 67.9375 C-6 70 -6 70 -6 72 C-4.68 72.33 -3.36 72.66 -2 73 C-2.47822623 77.52720835 -3.97117918 79.41660558 -7.25 82.5 C-8.01828125 83.2321875 -8.7865625 83.964375 -9.578125 84.71875 C-10.37734375 85.4715625 -11.1765625 86.224375 -12 87 C-16.44477131 91.33295317 -20.4666371 95.95788211 -24.5 100.671875 C-27 103 -27 103 -29.41796875 104.109375 C-33.25478827 103.94684709 -35.48423442 101.87030428 -38.3125 99.5 C-38.88137939 99.04020752 -39.45025879 98.58041504 -40.03637695 98.10668945 C-41.70291686 96.75166559 -43.35131844 95.37664396 -45 94 C-45.84304688 93.32324219 -46.68609375 92.64648438 -47.5546875 91.94921875 C-51.6392945 88.57530344 -52.91867354 87.20331615 -55 82 C-85.03 82 -115.06 82 -146 82 C-146 61.15490534 -146 61.15490534 -140.73046875 55.61328125 C-139.82941406 54.75089844 -138.92835938 53.88851562 -138 53 C-136.90939785 51.89262452 -135.82234279 50.78174793 -134.73828125 49.66796875 C-133.59641694 48.50775071 -132.45448901 47.34759529 -131.3125 46.1875 C-130.44141602 45.2912793 -130.44141602 45.2912793 -129.55273438 44.37695312 C-128.07274424 42.87985327 -126.54017218 41.43511269 -125 40 C-124.34 40 -123.68 40 -123 40 C-122.61908203 39.12988281 -122.61908203 39.12988281 -122.23046875 38.2421875 C-120.86417963 35.7525051 -119.33996613 34.10865055 -117.3125 32.125 C-116.66925781 31.48820312 -116.02601563 30.85140625 -115.36328125 30.1953125 C-114.58339844 29.47085938 -113.80351562 28.74640625 -113 28 C-112.28219817 27.25604508 -112.28219817 27.25604508 -111.54989529 26.49706078 C-107.66518221 22.73376647 -104.96038109 21.31303413 -99.54446411 21.253479 C-98.34791702 21.28583649 -98.34791702 21.28583649 -97.12719727 21.31884766 C-96.26786087 21.3179715 -95.40852448 21.31709534 -94.52314758 21.31619263 C-91.70328544 21.32034865 -88.88584896 21.36690421 -86.06640625 21.4140625 C-84.10344237 21.42526176 -82.14046166 21.4337985 -80.17747498 21.43978882 C-75.02647086 21.46262967 -69.87649191 21.5215121 -64.72589111 21.5880127 C-59.46388617 21.64953761 -54.20171456 21.67682562 -48.93945312 21.70703125 C-38.6258532 21.77125987 -28.31301206 21.87358191 -18 22 C-18 21.34 -18 20.68 -18 20 C-17.319375 19.484375 -16.63875 18.96875 -15.9375 18.4375 C-12.50921905 15.59275623 -10.16034851 12.41555671 -7.55078125 8.828125 C-7.03902344 8.22484375 -6.52726563 7.6215625 -6 7 C-5.34 7 -4.68 7 -4 7 C-3.71125 6.401875 -3.4225 5.80375 -3.125 5.1875 C-2 3 -2 3 0 0 Z " fill="#8EB6D8" transform="translate(365,147)"/>
<path d="M0 0 C3.37462715 0.54723683 5.08235 1.0549 8 3 C8 3.99 8 4.98 8 6 C8.66 6 9.32 6 10 6 C10.474375 6.639375 10.94875 7.27875 11.4375 7.9375 C12.9091365 10.28372963 12.9091365 10.28372963 16 11 C17.01351664 12.65848177 18.01120795 14.32665961 19 16 C21.01857018 18.61830843 22.61431929 20.6783508 25.94062233 21.45046425 C28.34260429 21.61577277 30.69750521 21.61843854 33.10473633 21.56762695 C34.01254852 21.56835709 34.92036072 21.56908722 35.85568237 21.56983948 C38.84841206 21.56636336 41.83957436 21.52750083 44.83203125 21.48828125 C46.90995941 21.47895322 48.98789858 21.47183706 51.06584167 21.46684265 C56.52906777 21.44777222 61.99162688 21.39867041 67.45458984 21.34332275 C73.03148374 21.29213162 78.60848564 21.26932886 84.18554688 21.24414062 C95.12399061 21.19055222 106.06193979 21.10523836 117 21 C118.14009942 38.53999103 118.14009942 38.53999103 115.68159485 43.84474182 C113.90939994 45.79895085 112.078082 47.37923241 110 49 C108.85970743 50.22586808 107.74124394 51.47239618 106.64526367 52.73803711 C103.54962585 56.1354922 100.39372636 59.47248543 97.21606445 62.79321289 C95.86664084 64.2196165 94.5337047 65.66180502 93.21801758 67.11938477 C91.28385539 69.25658455 89.29714068 71.33090421 87.29296875 73.40234375 C86.72974411 74.05017319 86.16651947 74.69800262 85.58622742 75.36546326 C78.88679961 82.04306827 69.82669323 81.012529 61 81 C59.52986889 81.01875824 58.05976587 81.03989538 56.58970642 81.06361389 C52.15056754 81.12293022 47.7128435 81.11321226 43.2734375 81.09765625 C41.66248621 81.0957835 40.05153434 81.09436367 38.44058228 81.09336853 C34.26837498 81.08961069 30.09620436 81.07984088 25.92401123 81.06866455 C21.63945003 81.05830273 17.35488271 81.05383978 13.0703125 81.04882812 C4.71352512 81.03821012 -3.64323283 81.02121837 -12 81 C-12.95050175 83.37038708 -13.90041024 85.73953447 -14.8125 88.125 C-16.40659114 90.64198601 -18.44394442 91.53026804 -21 93 C-21.66 93.99 -22.32 94.98 -23 96 C-23.66 96 -24.32 96 -25 96 C-25 96.99 -25 97.98 -25 99 C-26.63631892 100.04892238 -28.30485863 101.04906703 -30 102 C-30.33 102.66 -30.66 103.32 -31 104 C-34.40951722 102.86349426 -35.37636276 101.74186875 -37.6875 99.0625 C-38.31011719 98.35222656 -38.93273437 97.64195312 -39.57421875 96.91015625 C-41 95 -41 95 -41 93 C-41.66 93 -42.32 93 -43 93 C-44.71230248 91.38025441 -46.37163262 89.7041054 -48 88 C-49.3921875 86.6696875 -49.3921875 86.6696875 -50.8125 85.3125 C-53 83 -53 83 -53 81 C-53.99 80.67 -54.98 80.34 -56 80 C-56 79.34 -56 78.68 -56 78 C-56.99 77.67 -57.98 77.34 -59 77 C-59.9296875 75.19140625 -59.9296875 75.19140625 -60 73 C-58.3828125 70.96484375 -58.3828125 70.96484375 -56.125 68.9375 C-52.80491915 65.98893786 -52.80491915 65.98893786 -51 62 C-49.66666667 61.66666667 -48.33333333 61.33333333 -47 61 C-46.67 60.01 -46.34 59.02 -46 58 C-45.09121094 57.55527344 -45.09121094 57.55527344 -44.1640625 57.1015625 C-41.37486352 55.68178973 -40.19488482 53.90039083 -38.375 51.375 C-37.29645027 49.88198574 -36.18083049 48.41350645 -35 47 C-34.34 47 -33.68 47 -33 47 C-33 46.34 -33 45.68 -33 45 C-32.34 45 -31.68 45 -31 45 C-31 45.66 -31 46.32 -31 47 C-30.01 47 -29.02 47 -28 47 C-26.98133771 48.65532623 -25.98189187 50.32260138 -25 52 C-24.01 52.33 -23.02 52.66 -22 53 C-22 53.99 -22 54.98 -22 56 C-21.443125 56.2475 -20.88625 56.495 -20.3125 56.75 C-15.38596858 59.41298996 -12.89619296 61.73762962 -11 67 C-1.21173067 67.02320755 8.57653207 67.04095793 18.36482334 67.05181217 C22.91029904 67.05702261 27.45575586 67.06408679 32.0012207 67.07543945 C36.39082461 67.08633378 40.78041039 67.09229069 45.17002678 67.09487724 C46.84168724 67.09671971 48.51334675 67.10031755 50.18499947 67.10573006 C52.53294108 67.11302742 54.88080857 67.11398729 57.22875977 67.11352539 C57.91424896 67.11712067 58.59973816 67.12071594 59.30599976 67.12442017 C67.05196833 67.29290934 67.05196833 67.29290934 74.0480957 64.60131836 C74.58523193 64.02003174 75.12236816 63.43874512 75.67578125 62.83984375 C76.27583984 62.21142578 76.87589844 61.58300781 77.49414062 60.93554688 C78.09419922 60.27619141 78.69425781 59.61683594 79.3125 58.9375 C80.53348997 57.63011324 81.75854713 56.32650911 82.98828125 55.02734375 C83.51977783 54.44718506 84.05127441 53.86702637 84.59887695 53.26928711 C86 52 86 52 88 52 C88.30744141 51.18402344 88.30744141 51.18402344 88.62109375 50.3515625 C90.53638582 47.08525704 93.24392769 44.8408387 96.0625 42.375 C100.04320254 39.10808874 100.04320254 39.10808874 103 35 C92.9161635 35.01487408 82.83282409 35.05646384 72.74924946 35.13209057 C68.06689877 35.1663702 63.38487469 35.19147204 58.70239258 35.19555664 C54.18280036 35.19983754 49.66394502 35.22828248 45.14458275 35.27343178 C43.42107626 35.28641353 41.69748162 35.29071204 39.97393227 35.28615379 C37.55774163 35.28125231 35.14370847 35.30731608 32.7277832 35.34057617 C32.01640198 35.33195053 31.30502075 35.32332489 30.57208252 35.31443787 C26.67285656 35.4043223 25.13733189 35.88301369 22.12516785 38.44892883 C21.07320976 39.71170906 21.07320976 39.71170906 20 41 C18.95294478 41.89342409 17.89349544 42.77295534 16.8125 43.625 C13.88119654 45.87722335 13.88119654 45.87722335 12 49 C11.34 49 10.68 49 10 49 C9.62875 49.86625 9.62875 49.86625 9.25 50.75 C7.75446671 53.44195992 6.47486073 55.14385446 4 57 C0.80334334 57.06969455 -1.24737629 56.60274384 -3.76660156 54.58520508 C-5.67435877 52.70187333 -7.46906825 50.75354822 -9.25 48.75 C-9.87390625 48.08097656 -10.4978125 47.41195312 -11.140625 46.72265625 C-14.28349118 43.27498624 -16.44078676 40.45251269 -18 36 C-20.42383077 34.83046584 -20.42383077 34.83046584 -23 34 C-24.875 32.6875 -24.875 32.6875 -26 31 C-25.91792003 26.37889754 -23.66009261 24.2366925 -20.53515625 21.18359375 C-19.94605469 20.62800781 -19.35695312 20.07242187 -18.75 19.5 C-18.17636719 18.94441406 -17.60273438 18.38882812 -17.01171875 17.81640625 C-15.87793859 16.71878309 -14.74085827 15.6245575 -13.6003418 14.53393555 C-9.96648375 11.05086459 -6.47930372 7.49566509 -3.1875 3.6875 C-2.28064453 2.64142578 -2.28064453 2.64142578 -1.35546875 1.57421875 C-0.68451172 0.79498047 -0.68451172 0.79498047 0 0 Z " fill="#3E85C1" transform="translate(166,251)"/>
<path d="M0 0 C1.4540625 0.0309375 1.4540625 0.0309375 2.9375 0.0625 C2.9375 0.7225 2.9375 1.3825 2.9375 2.0625 C4.9175 1.7325 6.8975 1.4025 8.9375 1.0625 C8.38680631 4.91735585 6.76077433 6.47449853 3.9375 9.0625 C3.1125 9.908125 2.2875 10.75375 1.4375 11.625 C0.6125 12.429375 -0.2125 13.23375 -1.0625 14.0625 C-1.60037643 14.60336746 -2.13825287 15.14423492 -2.69242859 15.70149231 C-6.18834933 17.70901621 -9.57102178 17.39070313 -13.48364258 17.27612305 C-14.33129684 17.26371078 -15.17895111 17.25129852 -16.05229187 17.23851013 C-17.89120355 17.21037614 -19.73002376 17.17567036 -21.56870461 17.13516808 C-24.48200375 17.07369178 -27.39474791 17.03526473 -30.30851746 17.00386047 C-38.59186773 16.91225652 -46.87435883 16.7935725 -55.15649414 16.6237793 C-60.22499335 16.52150898 -65.29272864 16.45855469 -70.36209679 16.42029762 C-72.29076668 16.39802281 -74.21932558 16.36085625 -76.14740944 16.30835533 C-86.37946816 15.6209774 -86.37946816 15.6209774 -95.74913025 18.79432678 C-97.5257142 20.80766611 -98.78015099 22.71520656 -100.0625 25.0625 C-104.61330458 29.84667917 -109.28716596 34.4645335 -114.3125 38.75 C-117.3875963 41.37613224 -119.92254651 44.17131709 -122.48046875 47.29296875 C-124.89575762 49.99451407 -127.64467782 52.26709373 -130.42578125 54.58203125 C-132.17438885 55.98350715 -132.17438885 55.98350715 -133.0625 58.0625 C-134.0525 58.0625 -135.0425 58.0625 -136.0625 58.0625 C-136.371875 58.701875 -136.68125 59.34125 -137 60 C-138.0625 62.0625 -138.0625 62.0625 -139.0625 63.0625 C-139.0625 76.5925 -139.0625 90.1225 -139.0625 104.0625 C-89.5625 104.5575 -89.5625 104.5575 -39.0625 105.0625 C-40.55531721 111.03376884 -44.67757812 113.67497458 -49.65011597 116.89920044 C-57.58450781 121.30048763 -66.79868706 120.38519891 -75.59765625 120.21484375 C-77.65074436 120.20886977 -79.70384634 120.20662211 -81.75694275 120.207901 C-86.03147584 120.20013109 -90.30388237 120.15909662 -94.57788086 120.09155273 C-100.05253622 120.00611676 -105.52488638 119.98749739 -111.00013065 119.99127865 C-115.22708581 119.98991959 -119.45353844 119.96251402 -123.68032646 119.92627144 C-125.69969326 119.91038927 -127.71911671 119.90051303 -129.73854256 119.8968029 C-132.55332931 119.88595477 -135.36567134 119.84219999 -138.17993164 119.78881836 C-139.42440315 119.79221725 -139.42440315 119.79221725 -140.6940155 119.79568481 C-145.03454595 119.67534343 -146.58675661 119.45720592 -150.05516052 116.5796051 C-150.71758255 115.74896042 -151.38000458 114.91831573 -152.0625 114.0625 C-152.3925 113.7325 -152.7225 113.4025 -153.0625 113.0625 C-153.1560919 111.34384591 -153.17994611 109.62134256 -153.17602539 107.90014648 C-153.17594986 106.79908066 -153.17587433 105.69801483 -153.17579651 104.56358337 C-153.17063522 103.3656868 -153.16547394 102.16779022 -153.16015625 100.93359375 C-153.1587413 99.71422623 -153.15732635 98.4948587 -153.15586853 97.23854065 C-153.15024967 93.3256693 -153.13769396 89.41285419 -153.125 85.5 C-153.11998743 82.85481853 -153.1154241 80.20963617 -153.11132812 77.56445312 C-153.10027411 71.06378274 -153.08351764 64.56314539 -153.0625 58.0625 C-152.4025 58.0625 -151.7425 58.0625 -151.0625 58.0625 C-150.959375 57.464375 -150.85625 56.86625 -150.75 56.25 C-149.96425967 53.74991714 -149.09331147 52.68714918 -147.0625 51.0625 C-146.4025 51.0625 -145.7425 51.0625 -145.0625 51.0625 C-144.835625 50.505625 -144.60875 49.94875 -144.375 49.375 C-142.68699964 46.40090412 -140.59573483 44.34241135 -138.0625 42.0625 C-137.4025 42.0625 -136.7425 42.0625 -136.0625 42.0625 C-135.7325 41.0725 -135.4025 40.0825 -135.0625 39.0625 C-134.4025 39.0625 -133.7425 39.0625 -133.0625 39.0625 C-132.815 38.49015625 -132.5675 37.9178125 -132.3125 37.328125 C-130.86933801 34.71239389 -129.18033778 32.91476544 -127.0625 30.8125 C-126.36125 30.10609375 -125.66 29.3996875 -124.9375 28.671875 C-123.0625 27.0625 -123.0625 27.0625 -121.0625 27.0625 C-120.5675 25.5775 -120.5675 25.5775 -120.0625 24.0625 C-119.4025 24.0625 -118.7425 24.0625 -118.0625 24.0625 C-117.85625 23.505625 -117.65 22.94875 -117.4375 22.375 C-115.90741107 19.80166861 -114.05454548 18.33199645 -111.71875 16.5 C-109.28861659 14.3908276 -107.35450393 11.93333291 -105.359375 9.41796875 C-104.93140625 8.97066406 -104.5034375 8.52335938 -104.0625 8.0625 C-103.4025 8.0625 -102.7425 8.0625 -102.0625 8.0625 C-101.794375 7.44375 -101.52625 6.825 -101.25 6.1875 C-100.0625 4.0625 -100.0625 4.0625 -97.0625 2.0625 C-94.07876609 1.8537795 -91.18584916 1.761573 -88.20068359 1.75952148 C-87.29476974 1.75108215 -86.3888559 1.74264282 -85.45549011 1.73394775 C-82.4573007 1.70812985 -79.45920971 1.69602189 -76.4609375 1.68359375 C-74.38252984 1.66742601 -72.30412981 1.65024679 -70.22573853 1.63209534 C-64.75170411 1.58636502 -59.27765964 1.55157842 -53.80352783 1.51989746 C-45.03343088 1.46805515 -36.26344582 1.40306177 -27.49348831 1.33168221 C-24.42172493 1.30876747 -21.34997594 1.2925503 -18.27816772 1.27696228 C-16.40728597 1.26356178 -14.53640573 1.24994752 -12.66552734 1.23608398 C-11.37356194 1.23216393 -11.37356194 1.23216393 -10.05549622 1.22816467 C-6.27074049 1.19467234 -3.50460747 0.0715226 0 0 Z " fill="#8DB6D8" transform="translate(344.0625,138.9375)"/>
<path d="M0 0 C1.32 0 2.64 0 4 0 C7.25337166 13.56405723 9.51623113 28.77097441 4 42 C-2.19496568 51.83869318 -10.74037227 59.91626561 -19.1875 67.8125 C-19.73934589 68.32839314 -20.29119179 68.84428627 -20.85976028 69.37581253 C-27.30984013 75.3752812 -33.88997484 81.20659789 -40.61442566 86.89704895 C-42.31590964 88.39695506 -43.95779336 89.96560657 -45.55513 91.57597351 C-51.40789914 97.37884543 -51.40789914 97.37884543 -56.54315186 97.36076355 C-57.448965 97.36488754 -58.35477814 97.36901154 -59.28804016 97.3732605 C-60.27418808 97.36247467 -61.260336 97.35168884 -62.27636719 97.34057617 C-63.32058334 97.34101425 -64.3647995 97.34145233 -65.44065857 97.34190369 C-68.89292076 97.3398133 -72.34469762 97.31646983 -75.796875 97.29296875 C-78.19012181 97.2873737 -80.58337206 97.28310317 -82.97662354 97.28010559 C-89.2764433 97.26864972 -95.57605566 97.23917587 -101.87579346 97.20599365 C-108.30388585 97.17530894 -114.73201174 97.16160366 -121.16015625 97.14648438 C-133.773526 97.11430712 -146.38675197 97.06367802 -159 97 C-159.19873047 92.27539062 -159.19873047 92.27539062 -157.41015625 89.796875 C-152.23912289 85.2883534 -148.00837564 83.42398113 -141.17358398 83.26342773 C-140.43201018 83.23330565 -139.69043638 83.20318357 -138.92639065 83.1721487 C-131.73883207 82.91224249 -124.54989913 82.93435007 -117.35933113 83.01472664 C-112.68976073 83.05810541 -108.01987003 83.04499996 -103.35013676 83.04483891 C-99.28446522 83.04785223 -95.22031902 83.06906682 -91.1550293 83.12670898 C-87.16651049 83.18213244 -83.18052521 83.18828438 -79.19174004 83.16201591 C-77.68993556 83.16079183 -76.18799965 83.17697151 -74.68660164 83.21193123 C-65.84256969 83.42190083 -65.84256969 83.42190083 -57.93234253 79.8366394 C-55.41754613 77.33835773 -53.20506406 74.77146768 -51 72 C-48.85902405 69.67640686 -48.85902405 69.67640686 -47 68 C-46.34 68 -45.68 68 -45 68 C-44.76216797 67.42435303 -44.52433594 66.84870605 -44.27929688 66.25561523 C-42.72745543 63.51945814 -40.91993054 61.95511953 -38.53125 59.91015625 C-31.96126737 54.14487833 -25.90141793 47.9200211 -19.796875 41.66992188 C-18.94609375 40.80818359 -18.0953125 39.94644531 -17.21875 39.05859375 C-16.0730957 37.88768188 -16.0730957 37.88768188 -14.90429688 36.69311523 C-13 35 -13 35 -11 35 C-11.04713135 34.21351074 -11.0942627 33.42702148 -11.14282227 32.61669922 C-11.3304465 29.03679718 -11.44709897 25.45792728 -11.5625 21.875 C-11.63791016 20.6375 -11.71332031 19.4 -11.79101562 18.125 C-12.00953829 9.09272965 -12.00953829 9.09272965 -9.02685547 5.86425781 C-6.74325869 4.35894156 -4.46575601 3.17293961 -2 2 C-1.34 1.34 -0.68 0.68 0 0 Z " fill="#1F74BA" transform="translate(309,264)"/>
<path d="M0 0 C0.33 0 0.66 0 1 0 C1.33 13.53 1.66 27.06 2 41 C51.5 41.495 51.5 41.495 102 42 C100.50725189 47.97099244 96.39876715 50.62562279 91.42352295 53.84783936 C83.43534384 58.25924216 74.12718848 57.2138274 65.2890625 56.9765625 C63.22402398 56.95787113 61.15894059 56.94365551 59.09384155 56.9336853 C53.70375382 56.89581711 48.31643552 56.79787061 42.9274292 56.68664551 C37.41033377 56.58365945 31.89278313 56.53853077 26.375 56.48828125 C15.58212798 56.38158994 4.7912958 56.21131217 -6 56 C-6 55.67 -6 55.34 -6 55 C40.035 54.505 40.035 54.505 87 54 C87 53.34 87 52.68 87 52 C92.41176471 48 92.41176471 48 95 48 C95.33 46.68 95.66 45.36 96 44 C64.32 44 32.64 44 0 44 C-0.92645446 41.22063662 -1.10056322 39.74256078 -1.02172852 36.89575195 C-1.00163223 36.07512772 -0.98153595 35.25450348 -0.96083069 34.40901184 C-0.92027809 33.0870002 -0.92027809 33.0870002 -0.87890625 31.73828125 C-0.85529526 30.83248825 -0.83168427 29.92669525 -0.80735779 28.99345398 C-0.73076856 26.09964135 -0.64672369 23.20609952 -0.5625 20.3125 C-0.50927458 18.35092472 -0.45653421 16.38933622 -0.40429688 14.42773438 C-0.27515978 9.61831801 -0.13933558 4.80913127 0 0 Z " fill="#4F687D" transform="translate(203,202)"/>
<path d="M0 0 C3.37462715 0.54723683 5.08235 1.0549 8 3 C8 3.99 8 4.98 8 6 C8.66 6 9.32 6 10 6 C10.474375 6.639375 10.94875 7.27875 11.4375 7.9375 C12.9091365 10.28372963 12.9091365 10.28372963 16 11 C17.01351664 12.65848177 18.01120795 14.32665961 19 16 C21.01857018 18.61830843 22.61431929 20.6783508 25.94062233 21.45046425 C28.34260429 21.61577277 30.69750521 21.61843854 33.10473633 21.56762695 C34.01254852 21.56835709 34.92036072 21.56908722 35.85568237 21.56983948 C38.84841206 21.56636336 41.83957436 21.52750083 44.83203125 21.48828125 C46.90995941 21.47895322 48.98789858 21.47183706 51.06584167 21.46684265 C56.52906777 21.44777222 61.99162688 21.39867041 67.45458984 21.34332275 C73.03148374 21.29213162 78.60848564 21.26932886 84.18554688 21.24414062 C95.12399061 21.19055222 106.06193979 21.10523836 117 21 C117.05790353 24.29159316 117.09356261 27.58305603 117.125 30.875 C117.14175781 31.81214844 117.15851563 32.74929688 117.17578125 33.71484375 C117.18222656 34.61074219 117.18867188 35.50664062 117.1953125 36.4296875 C117.20578613 37.25710449 117.21625977 38.08452148 117.22705078 38.93701172 C117 41 117 41 115 43 C115 36.4 115 29.8 115 23 C113.02 23.495 113.02 23.495 111 24 C108.18956216 24.09651135 105.40499507 24.13969309 102.59472656 24.1328125 C101.3256546 24.13526726 101.3256546 24.13526726 100.03094482 24.13777161 C91.20060792 24.14631806 82.37013997 24.09192018 73.54003906 24.03271484 C69.35364429 24.00660884 65.16790583 23.99988006 60.98144531 24.01025391 C55.91892038 24.02267193 50.85760342 24.00101288 45.79528046 23.95526123 C43.87049648 23.94349167 41.94560113 23.94354974 40.02082062 23.95587158 C23.07365209 24.04859387 23.07365209 24.04859387 17.92089844 19.59765625 C16.30706787 17.74243164 16.30706787 17.74243164 15 16 C14.13375 15.175 13.2675 14.35 12.375 13.5 C4 4.68421053 4 4.68421053 4 2 C3.01 2 2.02 2 1 2 C0.74927734 2.57524414 0.49855469 3.15048828 0.24023438 3.74316406 C-1.16728827 6.30441196 -2.78170025 8.04057392 -4.84375 10.109375 C-5.59527344 10.86347656 -6.34679687 11.61757813 -7.12109375 12.39453125 C-7.90613281 13.17183594 -8.69117188 13.94914062 -9.5 14.75 C-10.28503906 15.54277344 -11.07007813 16.33554687 -11.87890625 17.15234375 C-12.63042969 17.90128906 -13.38195312 18.65023438 -14.15625 19.421875 C-14.84525391 20.10862305 -15.53425781 20.79537109 -16.24414062 21.50292969 C-18 23 -18 23 -20 23 C-20.433125 23.86625 -20.433125 23.86625 -20.875 24.75 C-21.91666667 26.83333333 -22.95833333 28.91666667 -24 31 C-24.66 31 -25.32 31 -26 31 C-25.71479575 25.54037585 -22.49781372 23.03459018 -18.75 19.5 C-18.17636719 18.94441406 -17.60273438 18.38882812 -17.01171875 17.81640625 C-15.87793859 16.71878309 -14.74085827 15.6245575 -13.6003418 14.53393555 C-9.96648375 11.05086459 -6.47930372 7.49566509 -3.1875 3.6875 C-2.58292969 2.99011719 -1.97835937 2.29273438 -1.35546875 1.57421875 C-0.68451172 0.79498047 -0.68451172 0.79498047 0 0 Z " fill="#577E9F" transform="translate(166,251)"/>
<path d="M0 0 C2.49118953 3.7367843 2.2065226 5.74451819 2.125 10.1875 C2.10695312 11.45980469 2.08890625 12.73210937 2.0703125 14.04296875 C2.03550781 15.50669922 2.03550781 15.50669922 2 17 C3.11055756 16.99555878 4.22111511 16.99111755 5.36532593 16.98654175 C15.81315331 16.94606078 26.26096486 16.91604698 36.70885277 16.89637566 C42.08067458 16.8859226 47.45243327 16.87173571 52.82421875 16.84912109 C58.00483448 16.82744689 63.18538935 16.81544285 68.36604691 16.81024551 C70.34607527 16.80653998 72.32610018 16.79930438 74.30610275 16.78853989 C77.07181846 16.77409698 79.83728021 16.77201902 82.60302734 16.77294922 C83.42805252 16.76575867 84.2530777 16.75856812 85.10310364 16.75115967 C90.77189568 16.77189568 90.77189568 16.77189568 93 19 C92.505 20.485 92.505 20.485 92 22 C91.505 20.515 91.505 20.515 91 19 C60.97 19 30.94 19 0 19 C0 12.73 0 6.46 0 0 Z " fill="#648199" transform="translate(219,210)"/>
<path d="M0 0 C1.86170334 0.0001133 1.86170334 0.0001133 3.76101685 0.00022888 C5.12046346 0.00533589 6.47990966 0.01055189 7.83935547 0.01586914 C9.22655181 0.01773397 10.61374881 0.01915757 12.00094604 0.02015686 C15.65388809 0.02397691 19.30679044 0.03380284 22.9597168 0.04486084 C26.68651797 0.05508595 30.41332556 0.05965684 34.14013672 0.06469727 C41.45395691 0.07542556 48.76774438 0.09249585 56.08154297 0.11352539 C56.08154297 0.77352539 56.08154297 1.43352539 56.08154297 2.11352539 C35.29154297 2.11352539 14.50154297 2.11352539 -6.91845703 2.11352539 C-8.34290366 5.66890778 -8.34290366 5.66890778 -9.73095703 9.23852539 C-11.32504817 11.7555114 -13.36240145 12.64379343 -15.91845703 14.11352539 C-16.90845703 15.59852539 -16.90845703 15.59852539 -17.91845703 17.11352539 C-18.57845703 17.11352539 -19.23845703 17.11352539 -19.91845703 17.11352539 C-19.91845703 18.10352539 -19.91845703 19.09352539 -19.91845703 20.11352539 C-21.55477595 21.16244778 -23.22331566 22.16259243 -24.91845703 23.11352539 C-25.24845703 23.77352539 -25.57845703 24.43352539 -25.91845703 25.11352539 C-29.91841989 23.78020444 -30.7562804 21.61774269 -32.91845703 18.11352539 C-31.59845703 18.44352539 -30.27845703 18.77352539 -28.91845703 19.11352539 C-28.91845703 19.77352539 -28.91845703 20.43352539 -28.91845703 21.11352539 C-27.92845703 20.45352539 -26.93845703 19.79352539 -25.91845703 19.11352539 C-23.23095703 18.98852539 -23.23095703 18.98852539 -20.91845703 19.11352539 C-20.58845703 17.79352539 -20.25845703 16.47352539 -19.91845703 15.11352539 C-19.25845703 15.11352539 -18.59845703 15.11352539 -17.91845703 15.11352539 C-17.87720703 14.41227539 -17.83595703 13.71102539 -17.79345703 12.98852539 C-16.58999264 9.03428526 -14.16675671 6.62083363 -10.91845703 4.11352539 C-10.25845703 4.11352539 -9.59845703 4.11352539 -8.91845703 4.11352539 C-8.58845703 3.12352539 -8.25845703 2.13352539 -7.91845703 1.11352539 C-5.19367551 -0.24886537 -3.05004848 -0.00617419 0 0 Z " fill="#2F5E86" transform="translate(160.91845703125,329.886474609375)"/>
<path d="M0 0 C0.598125 0.226875 1.19625 0.45375 1.8125 0.6875 C1.8125 1.3475 1.8125 2.0075 1.8125 2.6875 C3.1325 3.3475 4.4525 4.0075 5.8125 4.6875 C5.8125 5.3475 5.8125 6.0075 5.8125 6.6875 C6.8025 7.0175 7.7925 7.3475 8.8125 7.6875 C8.8125 8.6775 8.8125 9.6675 8.8125 10.6875 C8.1525 10.6875 7.4925 10.6875 6.8125 10.6875 C6.8125 11.3475 6.8125 12.0075 6.8125 12.6875 C5.4925 13.0175 4.1725 13.3475 2.8125 13.6875 C2.8125 14.6775 2.8125 15.6675 2.8125 16.6875 C1.8225 16.6875 0.8325 16.6875 -0.1875 16.6875 C-0.1875 17.3475 -0.1875 18.0075 -0.1875 18.6875 C-4.19504167 17.35165278 -5.56226236 14.91856172 -8.1875 11.6875 C-8.8475 11.3575 -9.5075 11.0275 -10.1875 10.6875 C-9.8575 9.3675 -9.5275 8.0475 -9.1875 6.6875 C-8.5275 6.6875 -7.8675 6.6875 -7.1875 6.6875 C-6.919375 6.089375 -6.65125 5.49125 -6.375 4.875 C-3.46022727 -0.49431818 -3.46022727 -0.49431818 0 0 Z " fill="#070809" transform="translate(369.1875,167.3125)"/>
<path d="M0 0 C1.82421875 1.64453125 1.82421875 1.64453125 3.6875 3.8125 C4.31011719 4.52019531 4.93273437 5.22789062 5.57421875 5.95703125 C7 8 7 8 7 11 C3.08141321 16.59798113 3.08141321 16.59798113 -0.40625 17.89453125 C-3 18 -3 18 -5.23828125 16.56640625 C-5.92277344 15.90511719 -6.60726562 15.24382812 -7.3125 14.5625 C-8.35857422 13.57443359 -8.35857422 13.57443359 -9.42578125 12.56640625 C-9.94527344 12.04949219 -10.46476563 11.53257812 -11 11 C-10.42073787 7.46180427 -9.15676523 5.74971757 -6.625 3.25 C-6.01914063 2.63640625 -5.41328125 2.0228125 -4.7890625 1.390625 C-3 0 -3 0 0 0 Z " fill="#030405" transform="translate(170,270)"/>
<path d="M0 0 C1.32 0 2.64 0 4 0 C4.17345152 5.87142936 4.30025826 11.74135832 4.38452148 17.61474609 C4.41965609 19.61110418 4.46737596 21.60728299 4.52807617 23.60302734 C4.61330797 26.47798903 4.65275654 29.35056507 4.68359375 32.2265625 C4.71972275 33.11429352 4.75585175 34.00202454 4.79307556 34.91665649 C4.79692587 41.03688817 4.79692587 41.03688817 2.39505005 43.93963623 C0.65969603 45.43626531 -1.07378186 46.76174616 -3 48 C-2.46769827 45.50442423 -2.18339744 44.20586906 -0.45581055 42.26660156 C1.7002063 38.90982471 1.37085578 35.59159412 1.29296875 31.734375 C1.28872391 30.94097717 1.28447906 30.14757935 1.28010559 29.33013916 C1.2633504 26.8030768 1.22570506 24.27682017 1.1875 21.75 C1.17244903 20.03386571 1.15876134 18.31771888 1.14648438 16.6015625 C1.11345735 12.40073254 1.06169765 8.20050275 1 4 C-5.08480858 7.56200524 -5.08480858 7.56200524 -8.74267578 13.26513672 C-8.88400772 15.70931807 -8.79224525 18.00062944 -8.5625 20.4375 C-8.52189453 21.26443359 -8.48128906 22.09136719 -8.43945312 22.94335938 C-8.33429078 24.96481327 -8.17286792 26.98320758 -8 29 C-11.70397272 25.29602728 -10.70919111 19.47977395 -10.80078125 14.4753418 C-10.63512761 7.74505354 -10.63512761 7.74505354 -7.765625 4.37890625 C-5.2092219 2.93099997 -2.78886716 1.90140171 0 1 C0 0.67 0 0.34 0 0 Z " fill="#6292BC" transform="translate(309,264)"/>
<path d="M0 0 C1.96009503 0.01493893 3.92022013 0.02631814 5.88035583 0.03430176 C11.01526778 0.06470603 16.14834135 0.14316661 21.28253174 0.23193359 C26.53120052 0.31407907 31.78016922 0.35037433 37.02929688 0.390625 C47.31069928 0.47617339 57.59074307 0.612537 67.87109375 0.78125 C67.54109375 1.44125 67.21109375 2.10125 66.87109375 2.78125 C65.79447479 2.78045441 64.71785583 2.77965881 63.60861206 2.77883911 C53.45611614 2.7752348 43.30412622 2.80305023 33.15179253 2.8615284 C27.93245409 2.89058505 22.71356492 2.90861937 17.49414062 2.90136719 C12.45580054 2.89477376 7.4183482 2.91726001 2.3801918 2.95980453 C0.45933314 2.97093547 -1.46161555 2.97163601 -3.38248062 2.96167374 C-6.07644355 2.94949411 -8.76769966 2.97459188 -11.46142578 3.00830078 C-12.25336838 2.99607986 -13.04531097 2.98385895 -13.86125183 2.9712677 C-18.26081201 3.07029259 -20.49540095 3.67675183 -23.67062378 6.82955933 C-24.48185699 7.80361725 -25.29309021 8.77767517 -26.12890625 9.78125 C-27.11890625 9.45125 -28.10890625 9.12125 -29.12890625 8.78125 C-21.50345219 -1.63440039 -11.66517302 -0.26160906 0 0 Z " fill="#7C8E9C" transform="translate(279.12890625,168.21875)"/>
<path d="M0 0 C0.556875 0.7425 1.11375 1.485 1.6875 2.25 C3.93027178 4.91707995 6.22074975 6.91556232 9 9 C7.63629701 11.99220268 6.05091917 14.29026529 3.875 16.75 C3.06675781 17.67039062 3.06675781 17.67039062 2.2421875 18.609375 C1.83226562 19.06828125 1.42234375 19.5271875 1 20 C-0.32 19.34 -1.64 18.68 -3 18 C-3 17.34 -3 16.68 -3 16 C-3.61875 15.773125 -4.2375 15.54625 -4.875 15.3125 C-7.61410209 13.62070165 -8.05024472 12.00755839 -9 9 C-8.06725891 7.87105124 -7.12859878 6.74699124 -6.1875 5.625 C-5.66542969 4.99851562 -5.14335937 4.37203125 -4.60546875 3.7265625 C-3 2 -3 2 0 0 Z " fill="#020406" transform="translate(134,315)"/>
<path d="M0 0 C0 0.99 0 1.98 0 3 C-3.76428223 5.50952148 -6.72175388 5.27847988 -11.07983398 5.25537109 C-12.31443359 5.26080177 -12.31443359 5.26080177 -13.57397461 5.26634216 C-15.36149931 5.27323666 -17.14904507 5.2757415 -18.93658257 5.27439499 C-21.76508237 5.27343103 -24.59320083 5.28635601 -27.42164612 5.30337524 C-35.46344044 5.34969071 -43.50519607 5.37426051 -51.54711914 5.38085938 C-56.46553567 5.38586876 -61.38355418 5.41008903 -66.30183601 5.44618607 C-68.1769071 5.45599715 -70.05203284 5.45830889 -71.92712212 5.45301437 C-74.54877254 5.44595876 -77.16923352 5.46319402 -79.79077148 5.48583984 C-80.56649002 5.47766739 -81.34220856 5.46949493 -82.14143372 5.46107483 C-85.75786758 5.5167197 -87.58482287 5.64164367 -90.37245178 8.04776001 C-90.90954269 8.69199921 -91.44663361 9.3362384 -92 10 C-94.25 9.75 -94.25 9.75 -96 9 C-91.54532834 4.65528883 -88.49428118 3.24627048 -82.19506836 3.20288086 C-81.45377906 3.17896491 -80.71248976 3.15504896 -79.94873714 3.13040829 C-77.63230586 3.06236945 -75.31721975 3.02863273 -73 3 C-71.58714445 2.96943985 -70.17431131 2.93782285 -68.76150513 2.90505981 C-65.2126363 2.83240662 -61.66430562 2.79510874 -58.11480904 2.77020454 C-55.80668878 2.75337983 -53.49870573 2.7301574 -51.19065857 2.70530701 C-44.64434889 2.63552145 -38.09799991 2.5738598 -31.55151367 2.52319336 C-27.51180177 2.49148918 -23.47228017 2.45029125 -19.43272209 2.40299797 C-17.90210271 2.38699181 -16.37144025 2.37466382 -14.84076118 2.36609077 C-12.71859195 2.35399571 -10.59687898 2.32988878 -8.47485352 2.30297852 C-7.26926285 2.29267105 -6.06367218 2.28236359 -4.82154846 2.27174377 C-1.86482797 2.28886936 -1.86482797 2.28886936 0 0 Z " fill="#2A699D" transform="translate(250,344)"/>
<path d="M0 0 C3.96523359 1.87917592 6.82033926 3.96486929 10 7 C10 11 10 11 8.25 12.921875 C7.5075 13.52515625 6.765 14.1284375 6 14.75 C5.2575 15.36359375 4.515 15.9771875 3.75 16.609375 C3.1725 17.06828125 2.595 17.5271875 2 18 C-0.87806415 16.69235781 -3.00692296 15.28858403 -5.25 13.0625 C-5.77078125 12.55847656 -6.2915625 12.05445313 -6.828125 11.53515625 C-8 10 -8 10 -8 7 C-6.25 5.17578125 -6.25 5.17578125 -4 3.3125 C-3.2575 2.68988281 -2.515 2.06726563 -1.75 1.42578125 C-1.1725 0.95527344 -0.595 0.48476562 0 0 Z " fill="#020304" transform="translate(333,213)"/>
<path d="M0 0 C1.4540625 0.0309375 1.4540625 0.0309375 2.9375 0.0625 C2.9375 0.7225 2.9375 1.3825 2.9375 2.0625 C5.9075 1.5675 5.9075 1.5675 8.9375 1.0625 C8.39045586 4.89180896 6.74704534 6.50085572 3.9375 9.0625 C3.36 9.64 2.7825 10.2175 2.1875 10.8125 C1.775 11.225 1.3625 11.6375 0.9375 12.0625 C0.4425 10.5775 0.4425 10.5775 -0.0625 9.0625 C0.9275 8.7325 1.9175 8.4025 2.9375 8.0625 C3.2675 6.4125 3.5975 4.7625 3.9375 3.0625 C-29.3925 3.0625 -62.7225 3.0625 -97.0625 3.0625 C-97.0625 2.7325 -97.0625 2.4025 -97.0625 2.0625 C-95.89960953 2.05219254 -94.73671906 2.04188507 -93.53858948 2.03126526 C-82.60475091 1.93370967 -71.67097154 1.830993 -60.73722935 1.72316074 C-55.1154487 1.66788443 -49.49366291 1.61445704 -43.87182617 1.56518555 C-38.45127101 1.51761128 -33.0307813 1.46527126 -27.61030388 1.40955925 C-25.53736936 1.38910415 -23.46441686 1.37039642 -21.39145088 1.35342598 C-18.49861242 1.32945154 -15.60589891 1.29938787 -12.71313477 1.26782227 C-11.84711136 1.2620668 -10.98108795 1.25631134 -10.08882141 1.25038147 C-6.30021284 1.20307132 -3.50873328 0.0716068 0 0 Z " fill="#91A6B7" transform="translate(344.0625,138.9375)"/>
<path d="M0 0 C0.66 0 1.32 0 2 0 C1.67 0.99 1.34 1.98 1 3 C0.34 3 -0.32 3 -1 3 C-1 3.99 -1 4.98 -1 6 C33.32 6 67.64 6 103 6 C103 5.34 103 4.68 103 4 C104.32 4.66 105.64 5.32 107 6 C104.66072943 7.16963529 103.30323352 7.12330589 100.69735718 7.12025452 C99.34276146 7.12231651 99.34276146 7.12231651 97.96080017 7.12442017 C96.9674617 7.12082489 95.97412323 7.11722961 94.95068359 7.11352539 C93.90675949 7.11367142 92.86283539 7.11381744 91.78727722 7.1139679 C88.32430977 7.11326922 84.8613956 7.10547891 81.3984375 7.09765625 C79.00232981 7.09579191 76.60622173 7.09436808 74.21011353 7.09336853 C67.89391025 7.08954461 61.57772986 7.07971538 55.26153564 7.06866455 C48.82019358 7.05844774 42.37884783 7.05387033 35.9375 7.04882812 C23.29165689 7.03809302 10.64582966 7.02120945 -2 7 C-2.125 4.625 -2.125 4.625 -2 2 C-1.34 1.34 -0.68 0.68 0 0 Z " fill="#256EAB" transform="translate(152,354)"/>
<path d="M0 0 C1.5 1.375 1.5 1.375 3 3 C3 3.66 3 4.32 3 5 C30.06 5 57.12 5 85 5 C85 5.66 85 6.32 85 7 C43.915 6.505 43.915 6.505 2 6 C2 5.34 2 4.68 2 4 C1.01 3.67 0.02 3.34 -1 3 C-0.67 2.01 -0.34 1.02 0 0 Z " fill="#375E7E" transform="translate(152,313)"/>
<path d="M0 0 C1.32 0 2.64 0 4 0 C4.17345152 5.87142936 4.30025826 11.74135832 4.38452148 17.61474609 C4.41965609 19.61110418 4.46737596 21.60728299 4.52807617 23.60302734 C4.61330797 26.47798903 4.65275654 29.35056507 4.68359375 32.2265625 C4.71972275 33.11429352 4.75585175 34.00202454 4.79307556 34.91665649 C4.79692587 41.03688817 4.79692587 41.03688817 2.39505005 43.93963623 C0.65969603 45.43626531 -1.07378186 46.76174616 -3 48 C-2.19384766 44.20898438 -2.19384766 44.20898438 -0.44921875 42.328125 C1.8354937 38.65780526 1.31624327 34.97542023 1.1875 30.75 C1.16719727 29.48929687 1.16719727 29.48929687 1.14648438 28.203125 C1.11123464 26.13514062 1.0574302 24.06748729 1 22 C1.33 22 1.66 22 2 22 C2.33 15.07 2.66 8.14 3 1 C2.01 0.67 1.02 0.34 0 0 Z " fill="#4C789D" transform="translate(309,264)"/>
<path d="M0 0 C0.66 0.33 1.32 0.66 2 1 C-4.05626464 8.25508337 -10.73634569 14.85122162 -17.4375 21.5 C-18.5620833 22.61955632 -19.68643405 23.73934629 -20.81054688 24.859375 C-23.53769344 27.57561534 -26.26795907 30.28868292 -29 33 C-29.99 32.67 -30.98 32.34 -32 32 C-30.71451591 30.66070495 -29.42141845 29.32871357 -28.125 28 C-27.40570313 27.2575 -26.68640625 26.515 -25.9453125 25.75 C-24 24 -24 24 -22 24 C-21.67 23.01 -21.34 22.02 -21 21 C-20.34 21 -19.68 21 -19 21 C-18.690625 20.1646875 -18.690625 20.1646875 -18.375 19.3125 C-16.84491107 16.73916861 -14.99204548 15.26949645 -12.65625 13.4375 C-10.22611659 11.3283276 -8.29200393 8.87083291 -6.296875 6.35546875 C-5.86890625 5.90816406 -5.4409375 5.46085938 -5 5 C-4.34 5 -3.68 5 -3 5 C-2.690625 4.360625 -2.38125 3.72125 -2.0625 3.0625 C-1 1 -1 1 0 0 Z " fill="#8FA4B5" transform="translate(245,142)"/>
<path d="M0 0 C0.33 0.66 0.66 1.32 1 2 C-0.65 3.65 -2.3 5.3 -4 7 C-3.43628586 3.73045798 -2.50037734 2.17424117 0 0 Z M-6 7 C-5.01 7.495 -5.01 7.495 -4 8 C-4 26.15 -4 44.3 -4 63 C-4.66 62.67 -5.32 62.34 -6 62 C-6 43.85 -6 25.7 -6 7 Z " fill="#7FA4C3" transform="translate(197,190)"/>
<path d="M0 0 C2.125 0.375 2.125 0.375 4 1 C2.625 2.5 2.625 2.5 1 4 C0.34 4 -0.32 4 -1 4 C1.16264012 7.98381075 3.71211176 10.88983545 7 14 C9.49361571 12.79618552 11.68143083 11.54571278 14 10 C12.92598892 12.91517292 12.22189824 14.77810176 10 17 C7.6875 17.5 7.6875 17.5 5 17 C2.92288034 15.15994291 1.61657332 13.30939045 0 11 C0 10.34 0 9.68 0 9 C-0.99 8.67 -1.98 8.34 -3 8 C-2.25 2.25 -2.25 2.25 0 0 Z " fill="#6A8BA8" transform="translate(326,216)"/>
<path d="M0 0 C1.32 0 2.64 0 4 0 C4 1.98 4 3.96 4 6 C3.34 6 2.68 6 2 6 C1.95875 6.556875 1.9175 7.11375 1.875 7.6875 C0.50615408 11.30516422 -1.87541718 12.83682728 -5 15 C-7.75 15.5 -7.75 15.5 -10 15 C-12 12 -12 12 -12 9 C-10 9 -10 9 -7.875 11 C-7.25625 11.66 -6.6375 12.32 -6 13 C-5.67 12.01 -5.34 11.02 -5 10 C-4.154375 9.195625 -3.30875 8.39125 -2.4375 7.5625 C0.45947584 5.10640106 0.45947584 5.10640106 0 1 C0 0.67 0 0.34 0 0 Z " fill="#306A9C" transform="translate(141,322)"/>
<path d="M0 0 C0.33 0.99 0.66 1.98 1 3 C-1.05632504 5.11051809 -3.11960202 7.21337163 -5.1875 9.3125 C-6.0547168 10.20485352 -6.0547168 10.20485352 -6.93945312 11.11523438 C-10.04666133 14.25755228 -12.93438849 17.11523161 -17 19 C-17.66 18.67 -18.32 18.34 -19 18 C-17.37660195 16.29115995 -15.70680947 14.62553283 -14 13 C-13.34 13 -12.68 13 -12 13 C-11.77570313 12.43796875 -11.55140625 11.8759375 -11.3203125 11.296875 C-9.61328077 8.32724583 -7.45193456 6.49655833 -4.875 4.25 C-3.96492188 3.45078125 -3.05484375 2.6515625 -2.1171875 1.828125 C-1.41851562 1.22484375 -0.71984375 0.6215625 0 0 Z " fill="#3370A3" transform="translate(276,319)"/>
<path d="M0 0 C1.32 0.33 2.64 0.66 4 1 C2.7254368 5.98238343 1.12299781 8.86293645 -3 12 C-5.82733167 12.835718 -7.99179847 12.95068522 -11 13 C-11.66 12.34 -12.32 11.68 -13 11 C-12.625 8.875 -12.625 8.875 -12 7 C-11.608125 7.515625 -11.21625 8.03125 -10.8125 8.5625 C-9.07446075 10.22604473 -9.07446075 10.22604473 -6.625 10.125 C-2.75747006 8.46748717 -1.15237444 5.50791239 1 2 C0.67 1.34 0.34 0.68 0 0 Z " fill="#4C7DA6" transform="translate(176,277)"/>
<path d="M0 0 C0.33 0 0.66 0 1 0 C1.03758423 1.8394519 1.03758423 1.8394519 1.07592773 3.71606445 C1.17003054 8.2615827 1.27024433 12.80694917 1.37231445 17.35229492 C1.41565241 19.32035779 1.45732832 21.28845798 1.49731445 23.2565918 C1.55504445 26.0839361 1.61873116 28.91109271 1.68359375 31.73828125 C1.70030624 32.61962234 1.71701874 33.50096344 1.73423767 34.40901184 C1.75418289 35.22963608 1.77412811 36.05026031 1.79467773 36.89575195 C1.81799416 37.97830009 1.81799416 37.97830009 1.84178162 39.0827179 C1.94195257 41.22108144 1.94195257 41.22108144 3 44 C1.68 43.67 0.36 43.34 -1 43 C-0.67 28.81 -0.34 14.62 0 0 Z " fill="#637D94" transform="translate(203,202)"/>
<path d="M0 0 C3.125 -0.1875 3.125 -0.1875 6 0 C6.33 2.31 6.66 4.62 7 7 C6.34 5.68 5.68 4.36 5 3 C-0.32697239 4.45281065 -3.36402802 8.08111378 -7 12 C-7.66 11.67 -8.32 11.34 -9 11 C-7.625 9 -7.625 9 -6 7 C-5.34 7 -4.68 7 -4 7 C-3.71125 6.401875 -3.4225 5.80375 -3.125 5.1875 C-2 3 -2 3 0 0 Z " fill="#92A8B9" transform="translate(365,147)"/>
<path d="M0 0 C0.66 0 1.32 0 2 0 C1.67 0.99 1.34 1.98 1 3 C0.34 3 -0.32 3 -1 3 C-1 3.99 -1 4.98 -1 6 C8.9 6 18.8 6 29 6 C29 6.33 29 6.66 29 7 C18.77 7 8.54 7 -2 7 C-2 2 -2 2 0 0 Z " fill="#285E8B" transform="translate(152,354)"/>
<path d="M0 0 C0.99 0.33 1.98 0.66 3 1 C-0.96 4.96 -4.92 8.92 -9 13 C-9.33 12.01 -9.66 11.02 -10 10 C-6.66666667 6.66666667 -3.33333333 3.33333333 0 0 Z " fill="#6493BB" transform="translate(164,254)"/>
<path d="M0 0 C0.66 0.33 1.32 0.66 2 1 C-1.63 4.63 -5.26 8.26 -9 12 C-9 7.81185084 -7.18271605 5.37983539 -4.5 2.25 C-3 1 -3 1 0 0 Z " fill="#2771AF" transform="translate(259,337)"/>
<path d="M0 0 C0.73605469 0.02255859 1.47210938 0.04511719 2.23046875 0.06835938 C4.02953842 0.12677073 5.82754753 0.21643663 7.625 0.3125 C7.625 0.6425 7.625 0.9725 7.625 1.3125 C6.17867187 1.35117187 6.17867187 1.35117187 4.703125 1.390625 C3.43984375 1.44734375 2.1765625 1.5040625 0.875 1.5625 C-1.00445312 1.63210938 -1.00445312 1.63210938 -2.921875 1.703125 C-6.83431972 2.39355642 -7.83442195 3.39554001 -10.375 6.3125 C-12.625 6.0625 -12.625 6.0625 -14.375 5.3125 C-9.59265044 0.5226073 -6.66992981 -0.39199407 0 0 Z " fill="#2B6A9E" transform="translate(168.375,347.6875)"/>
<path d="M0 0 C0.66 0.33 1.32 0.66 2 1 C0.95285076 2.32477959 -0.11344669 3.63443746 -1.1875 4.9375 C-1.77917969 5.66839844 -2.37085938 6.39929688 -2.98046875 7.15234375 C-5.35939059 9.32880415 -6.79966291 9.83374872 -10 10 C-12.3125 8.0625 -12.3125 8.0625 -14 6 C-12.4840625 6.4640625 -12.4840625 6.4640625 -10.9375 6.9375 C-7.1092593 7.39619492 -7.1092593 7.39619492 -4.9765625 5.5078125 C-3.22873469 3.73144872 -1.58036775 1.9262233 0 0 Z " fill="#60829E" transform="translate(343,241)"/>
<path d="M0 0 C-0.54704414 3.82930896 -2.19045466 5.43835572 -5 8 C-5.5775 8.5775 -6.155 9.155 -6.75 9.75 C-7.36875 10.36875 -7.36875 10.36875 -8 11 C-8.33 10.01 -8.66 9.02 -9 8 C-8.01 7.67 -7.02 7.34 -6 7 C-6 5.02 -6 3.04 -6 1 C-3 0 -3 0 0 0 Z " fill="#8699A8" transform="translate(353,140)"/>
<path d="M0 0 C0 0.99 0 1.98 0 3 C-0.89332031 3.15855469 -0.89332031 3.15855469 -1.8046875 3.3203125 C-4.30544933 4.09456972 -5.33690758 4.99329017 -7.125 6.875 C-7.62257812 7.38804687 -8.12015625 7.90109375 -8.6328125 8.4296875 C-10.20210444 10.16448528 -10.20210444 10.16448528 -12 13 C-12 11.35 -12 9.7 -12 8 C-11.34 8 -10.68 8 -10 8 C-9.34 6.35 -8.68 4.7 -8 3 C-7.01 3 -6.02 3 -5 3 C-5 2.34 -5 1.68 -5 1 C-3.35 0.67 -1.7 0.34 0 0 Z " fill="#5985AB" transform="translate(170,268)"/>
<path d="M0 0 C0.99 0.33 1.98 0.66 3 1 C2.26656372 1.61161987 2.26656372 1.61161987 1.51831055 2.2355957 C-0.35987877 4.41820934 -0.35334764 5.39266086 -0.29296875 8.23046875 C-0.28330078 9.03291016 -0.27363281 9.83535156 -0.26367188 10.66210938 C-0.23853516 11.49548828 -0.21339844 12.32886719 -0.1875 13.1875 C-0.17396484 14.03248047 -0.16042969 14.87746094 -0.14648438 15.74804688 C-0.11115799 17.83230384 -0.05735139 19.91623277 0 22 C-2 20 -2 20 -2.22705078 18.02880859 C-2.21657715 17.24328613 -2.20610352 16.45776367 -2.1953125 15.6484375 C-2.18886719 14.79765625 -2.18242187 13.946875 -2.17578125 13.0703125 C-2.15902344 12.18085938 -2.14226562 11.29140625 -2.125 10.375 C-2.11597656 9.4778125 -2.10695313 8.580625 -2.09765625 7.65625 C-2.0740497 5.43723414 -2.0411231 3.21874923 -2 1 C-1.34 0.67 -0.68 0.34 0 0 Z " fill="#5D97CA" transform="translate(301,271)"/>
<path d="M0 0 C0.99 0.33 1.98 0.66 3 1 C-0.3 4.3 -3.6 7.6 -7 11 C-7.33 10.01 -7.66 9.02 -8 8 C-5.36 5.36 -2.72 2.72 0 0 Z " fill="#3C719E" transform="translate(303,312)"/>
<path d="M0 0 C0.99 0.33 1.98 0.66 3 1 C4.125 3.4375 4.125 3.4375 5 6 C5.33 6.66 5.66 7.32 6 8 C1.25 7.125 1.25 7.125 -1 6 C-0.67 4.02 -0.34 2.04 0 0 Z " fill="#336D9D" transform="translate(123,323)"/>
<path d="M0 0 C6.26638478 1.0845666 6.26638478 1.0845666 8.35546875 3.69140625 C9.32087881 5.41659751 10.16943988 7.20599015 11 9 C10.01 9 9.02 9 8 9 C5 5.66666667 5 5.66666667 5 3 C2.525 2.01 2.525 2.01 0 1 C0 0.67 0 0.34 0 0 Z " fill="#5581A7" transform="translate(143,284)"/>
<path d="M0 0 C1.32 0.33 2.64 0.66 4 1 C4 1.66 4 2.32 4 3 C5.32 2.34 6.64 1.68 8 1 C8 5 8 5 7 7 C3.00003714 5.66667905 2.16217663 3.5042173 0 0 Z " fill="#276598" transform="translate(128,348)"/>
<path d="M0 0 C1.5 1.375 1.5 1.375 3 3 C3 3.66 3 4.32 3 5 C8.28 5 13.56 5 19 5 C19 5.33 19 5.66 19 6 C13.39 6 7.78 6 2 6 C2 5.34 2 4.68 2 4 C1.01 3.67 0.02 3.34 -1 3 C-0.67 2.01 -0.34 1.02 0 0 Z " fill="#325470" transform="translate(152,313)"/>
<path d="M0 0 C3.36179774 1.44077046 5.59156268 3.24750021 8 6 C8 6.66 8 7.32 8 8 C4.64079885 7.00131858 3.24657607 6.34860755 1.1875 3.4375 C0 1 0 1 0 0 Z " fill="#427098" transform="translate(144,307)"/>
<path d="M0 0 C4.2742558 1.5830577 6.26531794 4.50568404 9 8 C5.62537285 7.45276317 3.91765 6.9451 1 5 C0.3125 2.375 0.3125 2.375 0 0 Z " fill="#90A5B7" transform="translate(380,159)"/>
<path d="M0 0 C-1.38956025 3.35810395 -2.82526467 5.18586552 -6 7 C-8.75 7.1875 -8.75 7.1875 -11 7 C-10.01 6.67 -9.02 6.34 -8 6 C-8 5.34 -8 4.68 -8 4 C-2.58823529 0 -2.58823529 0 0 0 Z " fill="#6D94B5" transform="translate(298,250)"/>
<path d="M0 0 C2 0 2 0 4.125 2 C4.74375 2.66 5.3625 3.32 6 4 C6.33 3.34 6.66 2.68 7 2 C7.33 2.99 7.66 3.98 8 5 C7 6 7 6 4.5625 6.25 C3.716875 6.1675 2.87125 6.085 2 6 C0 3 0 3 0 0 Z " fill="#2B6392" transform="translate(129,331)"/>
<path d="M0 0 C1.98 1.65 3.96 3.3 6 5 C6 4.34 6 3.68 6 3 C6.66 3.33 7.32 3.66 8 4 C7.67 4.66 7.34 5.32 7 6 C3.28400809 6.20086443 2.22791555 6.1519437 -1 4 C-0.67 2.68 -0.34 1.36 0 0 Z " fill="#7C92A5" transform="translate(363,181)"/>
<path d="M0 0 C3.3 0.33 6.6 0.66 10 1 C9.01 2.485 9.01 2.485 8 4 C5.125 3.6875 5.125 3.6875 2 3 C1.34 2.01 0.68 1.02 0 0 Z " fill="#4376A1" transform="translate(162,304)"/>
<path d="M0 0 C0.598125 0.495 1.19625 0.99 1.8125 1.5 C3.97029994 3.28276418 3.97029994 3.28276418 7 3 C7 3.99 7 4.98 7 6 C4.625 6.125 4.625 6.125 2 6 C1.34 5.34 0.68 4.68 0 4 C0 2.68 0 1.36 0 0 Z " fill="#436C90" transform="translate(163,284)"/>
<path d="M0 0 C1.65 0.33 3.3 0.66 5 1 C5 1.66 5 2.32 5 3 C2.69 3.33 0.38 3.66 -2 4 C-2 4.66 -2 5.32 -2 6 C-2.66 5.67 -3.32 5.34 -4 5 C-2.68 3.35 -1.36 1.7 0 0 Z " fill="#5F7180" transform="translate(332,193)"/>
<path d="M0 0 C0.33 0.66 0.66 1.32 1 2 C-3.82142857 8.29464286 -3.82142857 8.29464286 -8 9 C-7.04270084 7.87411986 -6.08412105 6.7493285 -5.125 5.625 C-4.59132812 4.99851563 -4.05765625 4.37203125 -3.5078125 3.7265625 C-2.38567993 2.44163349 -1.20628025 1.20628025 0 0 Z " fill="#809AB0" transform="translate(237,190)"/>
<path d="M0 0 C0.99 0.33 1.98 0.66 3 1 C1.75803878 2.15454162 0.50607155 3.29832562 -0.75 4.4375 C-1.79414063 5.39462891 -1.79414063 5.39462891 -2.859375 6.37109375 C-4.98792725 7.99081325 -6.39023405 8.58267256 -9 9 C-6 6 -3 3 0 0 Z " fill="#8DA1B1" transform="translate(259,169)"/>
<path d="M0 0 C0.66 0 1.32 0 2 0 C1.67 0.99 1.34 1.98 1 3 C0.34 3 -0.32 3 -1 3 C-1 3.99 -1 4.98 -1 6 C1.97 6 4.94 6 8 6 C8 6.33 8 6.66 8 7 C4.7 7 1.4 7 -2 7 C-2 2 -2 2 0 0 Z " fill="#276497" transform="translate(152,354)"/>
<path d="M0 0 C0.33 0.99 0.66 1.98 1 3 C-1.31 4.98 -3.62 6.96 -6 9 C-6 6 -6 6 -4.6875 4.39453125 C-4.130625 3.87246094 -3.57375 3.35039062 -3 2.8125 C-2.443125 2.28269531 -1.88625 1.75289063 -1.3125 1.20703125 C-0.6628125 0.60955078 -0.6628125 0.60955078 0 0 Z " fill="#3D7BB0" transform="translate(276,319)"/>
<path d="M0 0 C0.99 0 1.98 0 3 0 C4.01866229 1.65532623 5.01810813 3.32260138 6 5 C6.99 5.33 7.98 5.66 9 6 C8.67 6.99 8.34 7.98 8 9 C8 8.34 8 7.68 8 7 C6.68 7 5.36 7 4 7 C4 6.34 4 5.68 4 5 C3.34 5 2.68 5 2 5 C2 3.68 2 2.36 2 1 C1.34 0.67 0.68 0.34 0 0 Z " fill="#3F6382" transform="translate(135,298)"/>
<path d="M0 0 C0.99 0.495 0.99 0.495 2 1 C2 1.66 2 2.32 2 3 C2.66 3 3.32 3 4 3 C4 4.65 4 6.3 4 8 C3.34 8 2.68 8 2 8 C1.67 8.66 1.34 9.32 1 10 C0.67 6.7 0.34 3.4 0 0 Z " fill="#94A9BA" transform="translate(393,171)"/>
<path d="M0 0 C0.66 0 1.32 0 2 0 C2 0.99 2 1.98 2 3 C2.66 3 3.32 3 4 3 C3.67 3.99 3.34 4.98 3 6 C3 5.34 3 4.68 3 4 C1.02 4.33 -0.96 4.66 -3 5 C-2.67 4.01 -2.34 3.02 -2 2 C-1.34 2 -0.68 2 0 2 C0 1.34 0 0.68 0 0 Z " fill="#4B7DA8" transform="translate(133,296)"/>
<path d="M0 0 C2.125 0.375 2.125 0.375 4 1 C3.21625 1.598125 2.4325 2.19625 1.625 2.8125 C-1.14574323 4.91085249 -1.14574323 4.91085249 -3 8 C-2.25 2.25 -2.25 2.25 0 0 Z " fill="#7396B4" transform="translate(326,216)"/>
<path d="M0 0 C0.66 0.33 1.32 0.66 2 1 C-2.14285714 7.42857143 -2.14285714 7.42857143 -5 10 C-4.49701212 5.59885603 -2.91227269 3.28804981 0 0 Z " fill="#7490A8" transform="translate(225,201)"/>
<path d="M0 0 C3.72940389 1.24313463 4.84656811 2.76985216 7 6 C6.67 6.99 6.34 7.98 6 9 C4.99406757 7.8803014 3.9954151 6.7540588 3 5.625 C2.443125 4.99851562 1.88625 4.37203125 1.3125 3.7265625 C0 2 0 2 0 0 Z " fill="#5183AE" transform="translate(155,295)"/>
<path d="M0 0 C0.33 0.66 0.66 1.32 1 2 C-0.32 3.65 -1.64 5.3 -3 7 C-4.32 6.67 -5.64 6.34 -7 6 C-5.73134318 3.46268636 -4.50290879 3.21353154 -2 2 C-1.34 1.34 -0.68 0.68 0 0 Z " fill="#63819A" transform="translate(339,226)"/>
<path d="M0 0 C-0.33 1.32 -0.66 2.64 -1 4 C-3.31 4.33 -5.62 4.66 -8 5 C-3.16129032 0 -3.16129032 0 0 0 Z " fill="#597D9D" transform="translate(307,267)"/>
<path d="M0 0 C0.99 0.33 1.98 0.66 3 1 C1.35 2.65 -0.3 4.3 -2 6 C-2.99 5.67 -3.98 5.34 -5 5 C-3.35 3.35 -1.7 1.7 0 0 Z " fill="#719BBF" transform="translate(164,254)"/>
<path d="M0 0 C0.66 0.33 1.32 0.66 2 1 C1.64950425 4.24208567 1.43778819 5.61527704 -1.0625 7.8125 C-1.701875 8.204375 -2.34125 8.59625 -3 9 C-2.67 7.35 -2.34 5.7 -2 4 C-1.01 4 -0.02 4 1 4 C0.67 2.68 0.34 1.36 0 0 Z " fill="#7594AF" transform="translate(361,219)"/>
<path d="M0 0 C0.33 0.99 0.66 1.98 1 3 C0.01 3.495 0.01 3.495 -1 4 C-1.33 4.99 -1.66 5.98 -2 7 C-3.32 6.67 -4.64 6.34 -6 6 C-4.02 4.02 -2.04 2.04 0 0 Z " fill="#2A70AC" transform="translate(142,342)"/>
<path d="M0 0 C0.33 0.99 0.66 1.98 1 3 C-0.65 4.32 -2.3 5.64 -4 7 C-4.66 6.67 -5.32 6.34 -6 6 C-4.02 4.02 -2.04 2.04 0 0 Z " fill="#4378A5" transform="translate(289,306)"/>
<path d="M0 0 C0.66 0.33 1.32 0.66 2 1 C0.35 2.98 -1.3 4.96 -3 7 C-3.99 6.67 -4.98 6.34 -6 6 C-4.02 4.02 -2.04 2.04 0 0 Z " fill="#698EAD" transform="translate(343,241)"/>
<path d="M0 0 C0.33 0.66 0.66 1.32 1 2 C-0.32 3.65 -1.64 5.3 -3 7 C-3.99 6.67 -4.98 6.34 -6 6 C-4.02 4.02 -2.04 2.04 0 0 Z " fill="#8499AB" transform="translate(248,179)"/>
</svg>
